<mxfile host="65bd71144e">
    <diagram id="ZK4qreKvf6D9RGWj9Qui" name="Page-1">
        <mxGraphModel dx="934" dy="953" grid="0" gridSize="10" guides="1" tooltips="1" connect="1" arrows="1" fold="1" page="1" pageScale="1" pageWidth="850" pageHeight="1100" background="#ffffff" math="0" shadow="0">
            <root>
                <mxCell id="0"/>
                <mxCell id="1" parent="0"/>
                <mxCell id="2" value="Udap.Client" style="rounded=1;whiteSpace=wrap;html=1;fontSize=16;fillColor=#dae8fc;gradientColor=#7ea6e0;strokeColor=#6c8ebf;" parent="1" vertex="1">
                    <mxGeometry x="190" y="405" width="120" height="75" as="geometry"/>
                </mxCell>
                <mxCell id="3" value="Actor" style="shape=umlActor;verticalLabelPosition=bottom;verticalAlign=top;html=1;outlineConnect=0;rounded=1;fillColor=#f5f5f5;fontColor=#333333;strokeColor=#666666;" parent="1" vertex="1">
                    <mxGeometry x="50" y="400" width="30" height="60" as="geometry"/>
                </mxCell>
                <mxCell id="4" value="FHIR Server&lt;br style=&quot;font-size: 17px;&quot;&gt;.well-known/udap" style="rounded=1;whiteSpace=wrap;html=1;fillColor=#e6d0de;gradientColor=#d5739d;strokeColor=#996185;fontSize=17;" parent="1" vertex="1">
                    <mxGeometry x="450" y="390" width="150" height="90" as="geometry"/>
                </mxCell>
                <mxCell id="8" value="" style="endArrow=none;dashed=1;html=1;fontSize=16;rounded=1;fillColor=#f5f5f5;strokeColor=#666666;" parent="1" edge="1">
                    <mxGeometry width="50" height="50" relative="1" as="geometry">
                        <mxPoint x="100" y="440" as="sourcePoint"/>
                        <mxPoint x="170" y="440" as="targetPoint"/>
                    </mxGeometry>
                </mxCell>
                <mxCell id="36" value="" style="edgeStyle=none;html=1;labelBackgroundColor=none;fontColor=#00BEF2;fillColor=#f5f5f5;strokeColor=#666666;entryX=0.446;entryY=0.011;entryDx=0;entryDy=0;entryPerimeter=0;" edge="1" parent="1" source="9" target="2">
                    <mxGeometry relative="1" as="geometry"/>
                </mxCell>
                <mxCell id="10" value="ACME Certificate Authoirty" style="outlineConnect=0;fontColor=#FFFFFF;gradientColor=none;fillColor=#BF0816;strokeColor=none;dashed=0;verticalLabelPosition=bottom;verticalAlign=top;align=center;html=1;fontSize=12;fontStyle=0;aspect=fixed;pointerEvents=1;shape=mxgraph.aws4.certificate_manager_2;rounded=1;" parent="1" vertex="1">
                    <mxGeometry x="470" y="40" width="78" height="72" as="geometry"/>
                </mxCell>
                <mxCell id="9" value="Install&amp;nbsp;&lt;br&gt;trust anchor" style="verticalLabelPosition=bottom;html=1;verticalAlign=top;align=center;strokeColor=none;fillColor=#00BEF2;shape=mxgraph.azure.certificate;pointerEvents=1;fontSize=16;rounded=1;fontColor=#00BEF2;" parent="1" vertex="1">
                    <mxGeometry x="155" y="309" width="50" height="40" as="geometry"/>
                </mxCell>
                <mxCell id="13" value="Request &lt;br&gt;signing &lt;br&gt;certificate" style="endArrow=none;dashed=1;html=1;dashPattern=1 3;strokeWidth=2;rounded=1;fontColor=#000000;fontSize=16;strokeColor=#666666;fillColor=#f5f5f5;labelBackgroundColor=none;" parent="1" source="15" target="23" edge="1">
                    <mxGeometry x="0.0979" y="41" width="50" height="50" relative="1" as="geometry">
                        <mxPoint x="580" y="230" as="sourcePoint"/>
                        <mxPoint x="640" y="390" as="targetPoint"/>
                        <mxPoint as="offset"/>
                    </mxGeometry>
                </mxCell>
                <mxCell id="14" value="Community B" style="rounded=1;whiteSpace=wrap;html=1;fontColor=#333333;fillColor=#f5f5f5;strokeColor=#666666;" parent="1" vertex="1">
                    <mxGeometry x="690" y="170" width="129" height="60" as="geometry"/>
                </mxCell>
                <mxCell id="15" value="Community A" style="rounded=1;whiteSpace=wrap;html=1;fontColor=#333333;fillColor=#f5f5f5;strokeColor=#666666;" parent="1" vertex="1">
                    <mxGeometry x="450" y="180" width="129" height="60" as="geometry"/>
                </mxCell>
                <mxCell id="16" value="" style="endArrow=none;dashed=1;html=1;dashPattern=1 3;strokeWidth=2;rounded=1;fontColor=#FFFFFF;startArrow=classicThin;startFill=1;fontSize=20;strokeColor=#00BEF2;" parent="1" edge="1">
                    <mxGeometry x="-0.0138" y="28" width="50" height="50" relative="1" as="geometry">
                        <mxPoint x="254" y="396" as="sourcePoint"/>
                        <mxPoint x="440" y="230" as="targetPoint"/>
                        <mxPoint as="offset"/>
                    </mxGeometry>
                </mxCell>
                <mxCell id="17" value="" style="endArrow=none;dashed=1;html=1;dashPattern=1 3;strokeWidth=2;rounded=1;fontSize=16;fontColor=#FFFFFF;fillColor=#f5f5f5;strokeColor=#666666;" parent="1" edge="1">
                    <mxGeometry width="50" height="50" relative="1" as="geometry">
                        <mxPoint x="510" y="170" as="sourcePoint"/>
                        <mxPoint x="510" y="140" as="targetPoint"/>
                    </mxGeometry>
                </mxCell>
                <mxCell id="18" value="" style="endArrow=none;dashed=1;html=1;dashPattern=1 3;strokeWidth=2;rounded=1;fontSize=16;fontColor=#FFFFFF;fillColor=#f5f5f5;strokeColor=#666666;" parent="1" edge="1">
                    <mxGeometry width="50" height="50" relative="1" as="geometry">
                        <mxPoint x="570" y="70" as="sourcePoint"/>
                        <mxPoint x="710" y="150" as="targetPoint"/>
                    </mxGeometry>
                </mxCell>
                <mxCell id="19" value="" style="endArrow=none;dashed=1;html=1;dashPattern=1 3;strokeWidth=2;rounded=1;fontSize=16;fontColor=#FFFFFF;fillColor=#f5f5f5;strokeColor=#666666;" parent="1" edge="1">
                    <mxGeometry width="50" height="50" relative="1" as="geometry">
                        <mxPoint x="740" y="290" as="sourcePoint"/>
                        <mxPoint x="760" y="240" as="targetPoint"/>
                    </mxGeometry>
                </mxCell>
                <mxCell id="20" value="" style="endArrow=none;dashed=1;html=1;dashPattern=1 3;strokeWidth=2;rounded=1;fontSize=16;fontColor=#FFFFFF;fillColor=#f5f5f5;strokeColor=#666666;" parent="1" edge="1">
                    <mxGeometry width="50" height="50" relative="1" as="geometry">
                        <mxPoint x="790" y="290" as="sourcePoint"/>
                        <mxPoint x="770" y="240" as="targetPoint"/>
                    </mxGeometry>
                </mxCell>
                <mxCell id="22" value="GET" style="endArrow=classic;html=1;rounded=1;fontSize=16;fontColor=#000000;fillColor=#f5f5f5;strokeColor=#666666;labelBackgroundColor=none;" parent="1" edge="1">
                    <mxGeometry y="20" width="50" height="50" relative="1" as="geometry">
                        <mxPoint x="320" y="434.5" as="sourcePoint"/>
                        <mxPoint x="440" y="434.5" as="targetPoint"/>
                        <mxPoint as="offset"/>
                    </mxGeometry>
                </mxCell>
                <mxCell id="23" value="&lt;span style=&quot;font-size: 16px;&quot;&gt;Sign Metadata&lt;/span&gt;&lt;br style=&quot;font-size: 16px;&quot;&gt;&lt;span style=&quot;font-size: 16px;&quot;&gt;with private key&lt;/span&gt;" style="sketch=0;outlineConnect=0;fontColor=#3F8624;gradientColor=none;fillColor=#3F8624;strokeColor=none;dashed=0;verticalLabelPosition=bottom;verticalAlign=top;align=center;html=1;fontSize=12;fontStyle=0;aspect=fixed;pointerEvents=1;shape=mxgraph.aws4.certificate_manager;rounded=1;" parent="1" vertex="1">
                    <mxGeometry x="641" y="390" width="49" height="64.78" as="geometry"/>
                </mxCell>
                <mxCell id="25" value="" style="endArrow=none;dashed=1;html=1;dashPattern=1 3;strokeWidth=2;rounded=1;strokeColor=#666666;fontSize=20;fontColor=#FFFFFF;entryX=0.5;entryY=1;entryDx=0;entryDy=0;fillColor=#f5f5f5;" parent="1" target="4" edge="1">
                    <mxGeometry width="50" height="50" relative="1" as="geometry">
                        <mxPoint x="523" y="796" as="sourcePoint"/>
                        <mxPoint x="560" y="580" as="targetPoint"/>
                    </mxGeometry>
                </mxCell>
                <mxCell id="26" value="" style="endArrow=none;dashed=1;html=1;dashPattern=1 3;strokeWidth=2;rounded=1;strokeColor=#666666;fontSize=20;fontColor=#FFFFFF;startArrow=none;fillColor=#f5f5f5;" parent="1" target="2" edge="1">
                    <mxGeometry width="50" height="50" relative="1" as="geometry">
                        <mxPoint x="250" y="797" as="sourcePoint"/>
                        <mxPoint x="249.5" y="470" as="targetPoint"/>
                    </mxGeometry>
                </mxCell>
                <mxCell id="27" value="Validate JWT Token" style="rounded=1;whiteSpace=wrap;html=1;fontSize=14;fontColor=#333333;fillColor=#f5f5f5;strokeColor=#666666;" parent="1" vertex="1">
                    <mxGeometry x="190" y="605" width="120" height="50" as="geometry"/>
                </mxCell>
                <mxCell id="28" value="Generate Metadata" style="rounded=1;whiteSpace=wrap;html=1;fontSize=14;fontColor=#333333;fillColor=#f5f5f5;strokeColor=#666666;" parent="1" vertex="1">
                    <mxGeometry x="465" y="520" width="120" height="50" as="geometry"/>
                </mxCell>
                <mxCell id="29" value="Add signed metadata elements" style="whiteSpace=wrap;html=1;fontSize=14;fontColor=#3F8624;rounded=1;fillColor=#f5f5f5;strokeColor=#666666;" parent="1" vertex="1">
                    <mxGeometry x="465" y="600" width="120" height="60" as="geometry"/>
                </mxCell>
                <mxCell id="31" value="" style="endArrow=classic;html=1;rounded=1;strokeColor=#FFFFFF;fontSize=14;fontColor=#3F8624;" parent="1" edge="1">
                    <mxGeometry width="50" height="50" relative="1" as="geometry">
                        <mxPoint x="450" y="630" as="sourcePoint"/>
                        <mxPoint x="330" y="630" as="targetPoint"/>
                    </mxGeometry>
                </mxCell>
                <mxCell id="33" value="" style="endArrow=none;dashed=1;html=1;dashPattern=1 3;strokeWidth=2;rounded=1;strokeColor=#FFFFFF;fontSize=20;fontColor=#FFFFFF;" parent="1" target="32" edge="1">
                    <mxGeometry width="50" height="50" relative="1" as="geometry">
                        <mxPoint x="250" y="880" as="sourcePoint"/>
                        <mxPoint x="250" y="480" as="targetPoint"/>
                    </mxGeometry>
                </mxCell>
                <mxCell id="32" value="Validate &lt;br&gt;certificate chain &lt;br&gt;up to trust anchor" style="rounded=1;whiteSpace=wrap;html=1;fontSize=14;fontColor=#00BEF2;fillColor=#f5f5f5;strokeColor=#666666;" parent="1" vertex="1">
                    <mxGeometry x="190" y="690" width="120" height="80" as="geometry"/>
                </mxCell>
                <mxCell id="37" value="" style="endArrow=classic;html=1;labelBackgroundColor=none;fontColor=#000000;fillColor=#f5f5f5;strokeColor=#666666;" edge="1" parent="1">
                    <mxGeometry width="50" height="50" relative="1" as="geometry">
                        <mxPoint x="459" y="626" as="sourcePoint"/>
                        <mxPoint x="321" y="626" as="targetPoint"/>
                    </mxGeometry>
                </mxCell>
            </root>
        </mxGraphModel>
    </diagram>
</mxfile>